<?xml version="1.0" encoding="UTF-8"?>
<svg version="1.1" xmlns="http://www.w3.org/2000/svg" width="100" height="100">
<path d="M0 0 C1.71737114 -0.01925285 1.71737114 -0.01925285 3.46943665 -0.03889465 C4.712108 -0.04628159 5.95477936 -0.05366852 7.23510742 -0.0612793 C8.50778976 -0.06935104 9.78047211 -0.07742279 11.09172058 -0.08573914 C13.78937429 -0.09959031 16.48690536 -0.11060365 19.18457031 -0.11816406 C22.63475867 -0.12922073 26.08430066 -0.16361141 29.53426075 -0.20333576 C32.83031217 -0.23581778 36.12642034 -0.24028239 39.42260742 -0.2487793 C40.65920609 -0.26628738 41.89580475 -0.28379547 43.1698761 -0.30183411 C44.32424667 -0.29890854 45.47861725 -0.29598297 46.66796875 -0.29296875 C47.68119705 -0.29883499 48.69442535 -0.30470123 49.73835754 -0.31074524 C53.27969492 0.30841303 54.9538247 1.72068462 57.52807617 4.17700195 C59.47377636 8.06840233 59.2468533 13.02782192 59.60229492 17.34887695 C60.07408799 22.21074447 60.85066331 25.96122228 63.52807617 30.17700195 C64.85838867 30.91950195 64.85838867 30.91950195 66.21557617 31.67700195 C66.97870117 32.17200195 67.74182617 32.66700195 68.52807617 33.17700195 C69.15307617 36.17700195 69.15307617 36.17700195 68.52807617 39.17700195 C66.89742854 40.23471934 65.22526744 41.22973241 63.52807617 42.17700195 C59.96951253 47.76532883 59.8369527 53.21535207 59.4440918 59.63208008 C59.02764853 64.65043171 58.2904751 67.5145529 54.52807617 71.17700195 C51.92043289 72.48082359 49.97642789 72.32556443 47.05615234 72.35400391 C45.3387812 72.37325676 45.3387812 72.37325676 43.5867157 72.39289856 C41.72270866 72.40397896 41.72270866 72.40397896 39.82104492 72.4152832 C38.54836258 72.42335495 37.27568024 72.4314267 35.96443176 72.43974304 C33.26677805 72.45359422 30.56924699 72.46460756 27.87158203 72.47216797 C24.42139368 72.48322464 20.97185168 72.51761531 17.52189159 72.55733967 C14.22584018 72.58982169 10.929732 72.5942863 7.63354492 72.6027832 C6.39694626 72.62029129 5.1603476 72.63779938 3.88627625 72.65583801 C2.15472038 72.65144966 2.15472038 72.65144966 0.38818359 72.64697266 C-0.62504471 72.6528389 -1.63827301 72.65870514 -2.6822052 72.66474915 C-6.22354258 72.04559087 -7.89767236 70.63331928 -10.47192383 68.17700195 C-12.41762401 64.28560158 -12.19070095 59.32618199 -12.54614258 55.00512695 C-13.01793564 50.14325943 -13.79451096 46.39278162 -16.47192383 42.17700195 C-17.35879883 41.68200195 -18.24567383 41.18700195 -19.15942383 40.67700195 C-19.92254883 40.18200195 -20.68567383 39.68700195 -21.47192383 39.17700195 C-22.09692383 36.17700195 -22.09692383 36.17700195 -21.47192383 33.17700195 C-19.84127619 32.11928457 -18.16911509 31.1242715 -16.47192383 30.17700195 C-12.91336019 24.58867507 -12.78080035 19.13865184 -12.38793945 12.72192383 C-11.97149619 7.70357219 -11.23432276 4.83945101 -7.47192383 1.17700195 C-4.86428055 -0.12681969 -2.92027555 0.02843947 0 0 Z " fill="#8948C7" transform="translate(26.471923828125,13.822998046875)"/>
<path d="M0 0 C19 0 19 0 25 3 C27 5 27 5 27.375 8.8125 C27.29926621 12.97028498 25.96605135 15.03394865 23 18 C23.99 18.680625 24.98 19.36125 26 20.0625 C28.72066977 22.33294073 28.96338476 22.77217181 29.5625 26.5 C28.96528061 30.21603177 28.40161244 32.11806508 26 35 C20.6187321 38.55061505 15.82386003 38.35859702 9.625 38.1875 C4.860625 38.0946875 4.860625 38.0946875 0 38 C0 25.46 0 12.92 0 0 Z " fill="#F8F5FC" transform="translate(36,31)"/>
<path d="M0 0 C2.08268593 -0.08126087 4.16628658 -0.13930839 6.25 -0.1875 C7.99023438 -0.23970703 7.99023438 -0.23970703 9.765625 -0.29296875 C13.22268407 0.02017066 14.51565563 0.65709108 17 3 C16.6875 6.375 16.6875 6.375 16 10 C12.36804504 12.42130331 10.61650652 12.21022785 6.3125 12.125 C5.13300781 12.10695313 3.95351563 12.08890625 2.73828125 12.0703125 C1.83464844 12.04710938 0.93101563 12.02390625 0 12 C0 8.04 0 4.08 0 0 Z " fill="#8B4FCC" transform="translate(42,52)"/>
<path d="M0 0 C1.5675 -0.061875 3.135 -0.12375 4.75 -0.1875 C6.07257812 -0.23970703 6.07257812 -0.23970703 7.421875 -0.29296875 C10.49021392 0.05570613 11.79575743 0.87159147 14 3 C14.5 5.5 14.5 5.5 14 8 C11.79575743 10.12840853 10.49021392 10.94429387 7.421875 11.29296875 C6.54015625 11.25816406 5.6584375 11.22335938 4.75 11.1875 C3.1825 11.125625 1.615 11.06375 0 11 C0 7.37 0 3.74 0 0 Z " fill="#914ECF" transform="translate(43,36)"/>
</svg>
