<?xml version="1.0" encoding="UTF-8"?>
<svg version="1.1" xmlns="http://www.w3.org/2000/svg" width="100" height="100">
<path d="M0 0 C0.82355988 -0.00428513 1.64711975 -0.00857025 2.49563599 -0.01298523 C4.23552533 -0.01872 5.97543865 -0.01923507 7.71533203 -0.01489258 C10.36663111 -0.011738 13.01680798 -0.03518281 15.66796875 -0.06054688 C17.36197777 -0.06282062 19.05598977 -0.06352302 20.75 -0.0625 C21.53768768 -0.07170975 22.32537537 -0.08091949 23.13693237 -0.09040833 C27.99169075 -0.04995037 31.29409448 0.63779702 35.5078125 3.30078125 C38.9753774 7.236936 40.30709806 10.84666346 40.671875 15.98828125 C40.38789304 19.99107455 38.91182893 23.12031231 36.5078125 26.30078125 C33.7578125 28.30078125 33.7578125 28.30078125 31.5078125 29.30078125 C32.4359375 29.98140625 33.3640625 30.66203125 34.3203125 31.36328125 C37.75185215 34.26626622 39.26475881 36.91353292 40.5078125 41.30078125 C40.75808962 47.27614745 39.53009261 51.73494978 35.5078125 56.30078125 C30.79787505 59.58678412 26.09605326 60.23048857 20.5078125 59.30078125 C17.31810852 57.56094271 15.06085757 55.85382632 12.5078125 53.30078125 C12.49322998 53.93056885 12.47864746 54.56035645 12.46362305 55.20922852 C12.38862256 58.09449446 12.29213611 60.97866848 12.1953125 63.86328125 C12.17275391 64.85392578 12.15019531 65.84457031 12.12695312 66.86523438 C11.85606721 74.27765802 11.00836702 79.42514355 6.0078125 85.17578125 C2.13339275 88.46903804 -1.25440154 88.6456954 -6.140625 88.58203125 C-10.96314613 88.00525131 -14.29828066 85.77326635 -17.3671875 81.98828125 C-19.28609033 77.4042356 -19.68237828 73.65589055 -18.9921875 68.73828125 C-17.05827907 64.30640777 -14.33622084 62.10672002 -10.4921875 59.30078125 C-11.2553125 58.74390625 -12.0184375 58.18703125 -12.8046875 57.61328125 C-16.58750936 54.358295 -18.1369051 51.77656969 -19.3046875 46.92578125 C-19.59487508 41.31548801 -18.75689596 37.72357827 -14.9921875 33.48828125 C-14.1671875 32.76640625 -13.3421875 32.04453125 -12.4921875 31.30078125 C-11.8321875 30.64078125 -11.1721875 29.98078125 -10.4921875 29.30078125 C-10.97429688 28.97207031 -11.45640625 28.64335938 -11.953125 28.3046875 C-16.47765378 24.89744032 -18.55140183 22.19055875 -19.40625 16.5390625 C-19.6003033 11.48485601 -18.34541303 8.31117991 -15.1171875 4.48828125 C-10.16145948 0.3585079 -6.37012366 -0.00733297 0 0 Z M11.5078125 30.30078125 C11.5078125 32.28078125 11.5078125 34.26078125 11.5078125 36.30078125 C12.67727042 35.49230396 13.84331711 34.67889013 15.0078125 33.86328125 C15.6575 33.41082031 16.3071875 32.95835938 16.9765625 32.4921875 C17.73453125 31.90244141 17.73453125 31.90244141 18.5078125 31.30078125 C18.5078125 30.97078125 18.5078125 30.64078125 18.5078125 30.30078125 C16.1978125 30.30078125 13.8878125 30.30078125 11.5078125 30.30078125 Z " fill="#7C4CFD" transform="translate(41.4921875,5.69921875)"/>
<path d="M0 0 C0.82355988 -0.00428513 1.64711975 -0.00857025 2.49563599 -0.01298523 C4.23552533 -0.01872 5.97543865 -0.01923507 7.71533203 -0.01489258 C10.36663111 -0.011738 13.01680798 -0.03518281 15.66796875 -0.06054688 C17.36197777 -0.06282062 19.05598977 -0.06352302 20.75 -0.0625 C21.53768768 -0.07170975 22.32537537 -0.08091949 23.13693237 -0.09040833 C27.99169075 -0.04995037 31.29409448 0.63779702 35.5078125 3.30078125 C38.9753774 7.236936 40.30709806 10.84666346 40.671875 15.98828125 C40.31354697 21.03900008 38.07600245 24.870961 34.3828125 28.23828125 C25.99830126 31.33690497 16.29091234 30.47584123 7.46606445 30.27856445 C6.0303736 30.25161156 4.59438999 30.23737948 3.15844727 30.2355957 C-10.32021539 30.2156863 -10.32021539 30.2156863 -14.8828125 26.51953125 C-18.30090174 22.79640403 -19.30021526 19.30078541 -19.4921875 14.30078125 C-18.65455617 8.7165724 -16.80725731 5.89667276 -12.4921875 2.30078125 C-8.6492684 -0.32952167 -4.48275358 -0.00516032 0 0 Z " fill="#FE6F42" transform="translate(41.4921875,5.69921875)"/>
<path d="M0 0 C0.76151367 0.00499512 1.52302734 0.00999023 2.30761719 0.01513672 C3.74089355 0.04244873 3.74089355 0.04244873 5.203125 0.0703125 C8.255625 0.1115625 11.308125 0.1528125 14.453125 0.1953125 C14.453125 9.7653125 14.453125 19.3353125 14.453125 29.1953125 C11.1325 29.3190625 7.811875 29.4428125 4.390625 29.5703125 C3.35800537 29.62493652 2.32538574 29.67956055 1.26147461 29.73583984 C-3.58481728 29.82278981 -6.79057011 29.57082415 -10.6328125 26.44921875 C-14.31593445 22.72931499 -15.34784724 19.37908097 -15.546875 14.1953125 C-14.70924367 8.61110365 -12.86194481 5.79120401 -8.546875 2.1953125 C-5.5756317 0.41796878 -3.44778967 -0.04659175 0 0 Z " fill="#E64918" transform="translate(37.546875,5.8046875)"/>
<path d="M0 0 C0.84755859 0.00322266 1.69511719 0.00644531 2.56835938 0.00976562 C3.44943359 0.01814453 4.33050781 0.02652344 5.23828125 0.03515625 C6.57729492 0.04192383 6.57729492 0.04192383 7.94335938 0.04882812 C10.14590112 0.06060642 12.34830724 0.07705461 14.55078125 0.09765625 C14.63242284 2.78578115 14.69157793 5.47137925 14.73828125 8.16015625 C14.76341797 8.91232422 14.78855469 9.66449219 14.81445312 10.43945312 C14.901899 17.17278586 13.57588452 21.76878749 9.05078125 26.97265625 C5.1763615 30.26591304 1.78856721 30.4425704 -3.09765625 30.37890625 C-7.92017738 29.80212631 -11.25531191 27.57014135 -14.32421875 23.78515625 C-16.24312158 19.2011106 -16.63940953 15.45276555 -15.94921875 10.53515625 C-14.03339472 6.14472618 -11.40690869 3.7243636 -7.44921875 1.09765625 C-4.6251011 0.1562837 -2.92003843 -0.01959757 0 0 Z " fill="#66B96B" transform="translate(38.44921875,63.90234375)"/>
<path d="M0 0 C3.97973579 2.6014328 6.02748845 5.93971021 7.25 10.5 C7.56888992 15.21159851 6.66834574 18.66330852 4.5625 22.875 C1.44160702 26.41763527 -1.20088295 28.12930255 -5.92578125 28.81640625 C-11.35459164 29.09925183 -14.56312431 28.20002968 -18.75 24.5 C-22.72838777 20.10283457 -23.32792539 16.5596245 -23.0703125 10.83203125 C-22.45297475 6.33751128 -20.54178667 4.21260801 -17.25 1.25 C-12.01019358 -2.4178645 -5.71771335 -2.79724339 0 0 Z " fill="#29B5F5" transform="translate(74.75,36.5)"/>
</svg>
