<?xml version="1.0" encoding="UTF-8"?>
<svg version="1.1" xmlns="http://www.w3.org/2000/svg" width="144" height="144">
<path d="M0 0 C1.81263733 1.22013855 1.81263733 1.22013855 3.62524414 2.89135742 C4.32013947 3.5298764 5.01503479 4.16839539 5.73098755 4.82626343 C9.99645913 8.91262777 14.19884415 13.05683184 18.37109375 17.23828125 C19.34360956 18.21012184 20.31627364 19.18181408 21.28907776 20.15336609 C23.31014804 22.17297388 25.329428 24.19434967 27.34741211 26.21704102 C29.93538459 28.81075611 32.52788364 31.39989333 35.12170315 33.98775959 C37.12316918 35.98561979 39.12225709 37.98584582 41.12062263 39.98680687 C42.54020078 41.40737545 43.96179148 42.82593196 45.38340759 44.24446106 C46.23842361 45.10262924 47.09343964 45.96079742 47.97436523 46.8449707 C49.10732277 47.97912163 49.10732277 47.97912163 50.26316833 49.13618469 C53.06305696 52.14077943 53.53361128 54.69219656 53.46195984 58.81248474 C52.89507343 61.49685805 51.96182376 62.6152807 50.10864258 64.62524414 C49.4701236 65.32013947 48.83160461 66.01503479 48.17373657 66.73098755 C44.08737223 70.99645913 39.94316816 75.19884415 35.76171875 79.37109375 C34.78987816 80.34360956 33.81818592 81.31627364 32.84663391 82.28907776 C30.82702612 84.31014804 28.80565033 86.329428 26.78295898 88.34741211 C24.18924389 90.93538459 21.60010667 93.52788364 19.01224041 96.12170315 C17.01438021 98.12316918 15.01415418 100.12225709 13.01319313 102.12062263 C11.59262455 103.54020078 10.17406804 104.96179148 8.75553894 106.38340759 C7.46828667 107.66593163 7.46828667 107.66593163 6.1550293 108.97436523 C5.39892868 109.72967026 4.64282806 110.48497528 3.86381531 111.26316833 C0.85922057 114.06305696 -1.69219656 114.53361128 -5.81248474 114.46195984 C-8.49685805 113.89507343 -9.6152807 112.96182376 -11.62524414 111.10864258 C-12.32013947 110.4701236 -13.01503479 109.83160461 -13.73098755 109.17373657 C-17.99645913 105.08737223 -22.19884415 100.94316816 -26.37109375 96.76171875 C-27.34360956 95.78987816 -28.31627364 94.81818592 -29.28907776 93.84663391 C-31.31014804 91.82702612 -33.329428 89.80565033 -35.34741211 87.78295898 C-37.93538459 85.18924389 -40.52788364 82.60010667 -43.12170315 80.01224041 C-45.12316918 78.01438021 -47.12225709 76.01415418 -49.12062263 74.01319313 C-50.54020078 72.59262455 -51.96179148 71.17406804 -53.38340759 69.75553894 C-54.66593163 68.46828667 -54.66593163 68.46828667 -55.97436523 67.1550293 C-56.72967026 66.39892868 -57.48497528 65.64282806 -58.26316833 64.86381531 C-61.06612551 61.85592767 -61.54913542 59.29659903 -61.44360352 55.16943359 C-59.59838046 46.14540935 -45.47567751 36.37208231 -39.0625 30 C-37.69703255 28.63955682 -36.33179614 27.27888169 -34.96679688 25.91796875 C-31.64719114 22.6092969 -28.32446727 19.30378678 -25 16 C-24.53384277 16.40049561 -24.06768555 16.80099121 -23.58740234 17.21362305 C-22.96816895 17.74511963 -22.34893555 18.27661621 -21.7109375 18.82421875 C-21.10040527 19.34846436 -20.48987305 19.87270996 -19.86083984 20.4128418 C-18.63917871 21.45482803 -17.4101801 22.48828447 -16.17333984 23.51220703 C-13.71190353 25.57931675 -12.19792433 27.02232205 -11.546875 30.23828125 C-11.375 32.625 -11.375 32.625 -11.3984375 34.8515625 C-11.20029352 37.1918892 -11.20029352 37.1918892 -9.00830078 38.66748047 C-6.30473861 41.80750393 -6.42223018 44.51225089 -6.46875 48.46875 C-6.4649231 49.186073 -6.46109619 49.903396 -6.45715332 50.64245605 C-6.45443773 52.15536914 -6.46177445 53.66832945 -6.47851562 55.18115234 C-6.49993449 57.49292976 -6.47870649 59.80160013 -6.453125 62.11328125 C-6.45576834 63.58594434 -6.46089347 65.0586055 -6.46875 66.53125 C-6.46065308 67.21989136 -6.45255615 67.90853271 -6.44421387 68.61804199 C-6.51072797 72.03363662 -6.69166439 73.65503641 -9.00585938 76.24414062 C-9.99295898 77.11329102 -9.99295898 77.11329102 -11 78 C-11.42460581 81.45750445 -11.70099685 83.83167192 -9.875 86.875 C-7.23137414 88.46117551 -5.06653482 88.81225297 -2 89 C0.74954328 88.03394425 1.69007757 87.61984486 3 85 C3.41692853 81.58399407 3.41692853 81.58399407 3 78 C2.34161133 77.42217773 1.68322266 76.84435547 1.00488281 76.24902344 C-1.77365757 73.13213182 -1.50743058 70.35779822 -1.390625 66.390625 C-1.38496521 65.66381531 -1.37930542 64.93700562 -1.37347412 64.18817139 C-1.35114553 61.87476755 -1.30096048 59.5629328 -1.25 57.25 C-1.22993023 55.67840784 -1.21168029 54.10679132 -1.1953125 52.53515625 C-1.15129293 48.68950283 -1.08229375 44.84501711 -1 41 C4.36596196 43.55902069 8.39887604 47.26939928 12 52 C12.69937074 54.48882212 12.88771045 56.48097607 12.8046875 59.0546875 C12.83624579 61.10080941 12.83624579 61.10080941 14.32421875 62.70703125 C16.80462344 64.62081669 18.90948038 64.81078451 22 65 C24.74954328 64.03394425 25.69007757 63.61984486 27 61 C27.35173852 57.20122401 27.52701444 54.85639847 25.5 51.5625 C22.98040783 49.62305735 22.98040783 49.62305735 19.4375 50.4375 C16.00901772 50.63156503 14.92910874 49.94876925 12.0703125 47.8828125 C3.4698482 40.17272302 3.4698482 40.17272302 3.0625 34.0625 C3.06507812 33.34320313 3.06765625 32.62390625 3.0703125 31.8828125 C3.14481428 29.76824125 3.14481428 29.76824125 1.4375 27.4375 C-1.06907462 25.64612482 -1.06907462 25.64612482 -4.74609375 26.28515625 C-8.25025044 26.34927368 -9.83036692 25.75342057 -12.40625 23.375 C-13.45875995 22.26986455 -14.48993229 21.14405628 -15.5 20 C-16.03625 19.42765625 -16.5725 18.8553125 -17.125 18.265625 C-18.43571388 16.8612887 -19.72060273 15.43292495 -21 14 C-19.47238013 10.37190281 -17.29392861 8.05653702 -14.5 5.3125 C-13.7059375 4.52488281 -12.911875 3.73726562 -12.09375 2.92578125 C-8.45817164 -0.41813691 -4.80044016 -1.01375776 0 0 Z " fill="#F4501D" transform="translate(76,15)"/>
</svg>
