<?xml version="1.0" encoding="UTF-8"?>
<svg version="1.1" xmlns="http://www.w3.org/2000/svg" width="96" height="96">
<path d="M0 0 C3.95903022 1.43175888 7.26186067 3.32306718 10.78125 5.625 C11.87050781 6.33140625 12.95976562 7.0378125 14.08203125 7.765625 C15.79411581 8.88376115 17.50520704 10.00340717 19.21630859 11.12304688 C20.88149385 12.2105538 22.55008672 13.29283731 24.21875 14.375 C25.7027832 15.34566406 25.7027832 15.34566406 27.21679688 16.3359375 C30.93468312 18.58616679 30.93468312 18.58616679 35 20 C37.5534008 19.09351034 37.5534008 19.09351034 39.984375 17.34375 C40.92023437 16.73273437 41.85609375 16.12171875 42.8203125 15.4921875 C43.78710938 14.83476562 44.75390625 14.17734375 45.75 13.5 C46.70132813 12.87351562 47.65265625 12.24703125 48.6328125 11.6015625 C52.32411356 9.16429249 55.99012112 6.69218937 59.63867188 4.19140625 C60.44369141 3.64355469 61.24871094 3.09570312 62.078125 2.53125 C63.14401855 1.79745117 63.14401855 1.79745117 64.23144531 1.04882812 C66 0 66 0 68 0 C68.37321554 5.94006027 68.64394749 11.87320941 68.82397461 17.82226562 C68.89903737 19.84072739 69.00114292 21.85838324 69.1315918 23.87402344 C70.15900726 40.16762404 70.15900726 40.16762404 66.55987549 44.88928223 C62.53436423 48.5316664 57.89980106 50.77048896 53 53 C50.12238319 54.48606822 50.12238319 54.48606822 48 56 C48 56.66 48 57.32 48 58 C51.63 59.98 55.26 61.96 59 64 C71.9527347 57.87451414 71.9527347 57.87451414 80.19921875 47.265625 C80.15063842 44.88263179 80.02829758 42.49973547 79.82421875 40.125 C80 37 80 37 82.14453125 34.5625 C88.72152218 30 88.72152218 30 92 30 C94.35115487 54.72691494 94.35115487 54.72691494 90.80175781 61.17773438 C87.55478863 64.51712203 83.50963449 66.21158999 79.25537109 67.96044922 C75.14737772 69.85391488 71.56931252 72.5997453 67.875 75.1875 C66.48836123 76.15643097 65.09051209 77.10960479 63.6796875 78.04296875 C63.08913574 78.44539795 62.49858398 78.84782715 61.89013672 79.26245117 C59.22548479 80.302223 57.7150489 79.82330099 55 79 C47.35813968 75.49420966 37.15834114 70.37819651 32.78564453 62.93212891 C31.40032193 58.76632914 31.49570876 54.92888724 32.97753906 50.80078125 C36.33544521 44.88676126 43.19792634 42.01510998 49 39 C52.44025098 37.2505251 52.44025098 37.2505251 55 35 C55.72104815 32.195223 55.72104815 32.195223 55.375 29.25 C55.32085937 28.26515625 55.26671875 27.2803125 55.2109375 26.265625 C55.10652344 25.14414062 55.10652344 25.14414062 55 24 C52.39536997 25.6242582 49.79137745 27.24953566 47.1875 28.875 C46.44951172 29.33519531 45.71152344 29.79539062 44.95117188 30.26953125 C44.23896484 30.71425781 43.52675781 31.15898438 42.79296875 31.6171875 C42.1383667 32.02565918 41.48376465 32.43413086 40.80932617 32.85498047 C39.1907533 33.8792831 37.59375623 34.93749584 36 36 C30.92857504 35.84549422 26.99300676 32.73657907 22.875 30.0625 C22.15957031 29.60681641 21.44414062 29.15113281 20.70703125 28.68164062 C17.78463975 26.81622624 14.88480537 24.92320358 12 23 C12 31.25 12 39.5 12 48 C2.9803984 44.39215936 2.9803984 44.39215936 0 41 C-0.94631145 37.82985902 -0.8198323 34.82748545 -0.68359375 31.54296875 C-0.67368912 30.64000565 -0.66378448 29.73704254 -0.65357971 28.80671692 C-0.61449532 25.93196895 -0.52669106 23.0610868 -0.4375 20.1875 C-0.40237815 18.23508132 -0.37044067 16.28260259 -0.34179688 14.33007812 C-0.26475335 9.55190341 -0.14401669 4.77660627 0 0 Z " fill="#0188D1" transform="translate(2,10)"/>
<path d="M0 0 C3.95131891 1.43450351 7.28489023 3.31731791 10.81640625 5.58984375 C11.91017578 6.29173828 13.00394531 6.99363281 14.13085938 7.71679688 C14.69442139 8.081521 15.2579834 8.44624512 15.83862305 8.82202148 C17.55816889 9.93469744 19.28161289 11.04111001 21.00585938 12.14648438 C27.09874374 16.06821703 27.09874374 16.06821703 30 18 C30.76916748 18.49806152 31.53833496 18.99612305 32.33081055 19.50927734 C34 21 34 21 34.390625 24.57421875 C34.3641199 25.94585748 34.3165309 27.31721938 34.25 28.6875 C34.23195312 29.38939453 34.21390625 30.09128906 34.1953125 30.81445312 C34.14826213 32.54355436 34.07651873 34.27195205 34 36 C28.8845094 34.29825363 24.64907609 31.32149298 20.1875 28.375 C17.485625 26.60125 14.78375 24.8275 12 23 C12 31.25 12 39.5 12 48 C2.9803984 44.39215936 2.9803984 44.39215936 0 41 C-0.94631145 37.82985902 -0.8198323 34.82748545 -0.68359375 31.54296875 C-0.67368912 30.64000565 -0.66378448 29.73704254 -0.65357971 28.80671692 C-0.61449532 25.93196895 -0.52669106 23.0610868 -0.4375 20.1875 C-0.40237815 18.23508132 -0.37044067 16.28260259 -0.34179688 14.33007812 C-0.26475335 9.55190341 -0.14401669 4.77660627 0 0 Z " fill="#28B6F6" transform="translate(2,10)"/>
<path d="M0 0 C2.35115487 24.72691494 2.35115487 24.72691494 -1.19824219 31.17773438 C-4.44014453 34.51191098 -8.48377725 36.21658304 -12.73144531 37.96484375 C-16.88712609 39.8611079 -20.54835059 42.55847941 -24.3125 45.125 C-31.66045455 50 -31.66045455 50 -34 50 C-34.90344477 44.98086239 -35.7379748 39.89883117 -34 35 C-30.09260285 30.3768709 -24.27388881 27.77312782 -19 25 C-15.53333774 23.32313111 -15.53333774 23.32313111 -13 21 C-12.43230932 17.73598291 -12.43230932 17.73598291 -12.75 14.1875 C-12.60756809 7.68310941 -12.60756809 7.68310941 -9.80078125 4.52734375 C-3.28400924 0 -3.28400924 0 0 0 Z " fill="#0188D1" transform="translate(94,40)"/>
<path d="M0 0 C0.59425781 0.36351562 1.18851563 0.72703125 1.80078125 1.1015625 C7.33906068 4.46070555 12.94154036 7.64640721 18.65234375 10.703125 C21 12 21 12 24 14 C24.22107787 16.7885289 24.28107535 19.34653181 24.1875 22.125 C24.16719727 23.25615234 24.16719727 23.25615234 24.14648438 24.41015625 C24.11109985 26.27374127 24.05729167 28.13695978 24 30 C21.96839164 28.95391439 19.97980435 27.86094482 18 26.71875 C16.38291874 25.79229719 14.75882242 24.87593746 13.1015625 24.0234375 C0.95594968 17.74122397 0.95594968 17.74122397 -0.67089844 13.07617188 C-1.2955425 8.63846487 -0.79264186 4.40356588 0 0 Z " fill="#28B5F5" transform="translate(36,60)"/>
<path d="M0 0 C0.59720456 5.155866 0.88599894 9.86331568 0 15 C-2.84018424 18.3650009 -5.95877569 20.29738582 -10 22 C-10.66 22 -11.32 22 -12 22 C-12.59720456 16.844134 -12.88599894 12.13668432 -12 7 C-9.01975945 3.46906283 -4.83797628 0 0 0 Z " fill="#0187D0" transform="translate(94,12)"/>
</svg>
