<?xml version="1.0" encoding="UTF-8"?>
<svg version="1.1" xmlns="http://www.w3.org/2000/svg" width="270" height="265">
<path d="M0 0 C1.6643932 1.33617021 3.33045435 2.67027338 5 4 C5.55945313 3.45472656 6.11890625 2.90945312 6.6953125 2.34765625 C18.16745269 -8.44205759 33.02892513 -19.60722529 49.49609375 -19.3359375 C55.91371363 -18.47491518 61.35270351 -15.29716502 65.4375 -10.3125 C70.42995653 -2.53903626 71.51007847 5.67240543 71.375 14.75 C71.36629883 16.17820068 71.36629883 16.17820068 71.35742188 17.63525391 C71.21592646 25.38474816 70.14157058 32.52999786 68 40 C68.62003906 40.12375 69.24007812 40.2475 69.87890625 40.375 C84.33070854 43.74077637 98.79020804 51.68143664 107.0625 64.3125 C110.58255713 70.28782829 110.7101985 76.11185944 109.0625 82.8125 C103.73860614 95.49661579 90.99188762 102.61864335 78.88720703 107.68652344 C70.69102641 111 70.69102641 111 67 111 C67.433125 112.58361328 67.433125 112.58361328 67.875 114.19921875 C70.09108908 122.82293165 71.40537397 131.07940388 71.4375 140 C71.45200195 141.26976685 71.45200195 141.26976685 71.46679688 142.56518555 C71.34558282 151.68208666 69.24541327 160.798057 62.5859375 167.40234375 C57.138551 172.22118565 52.26651246 173.53907346 45.15234375 173.3671875 C29.46150746 171.53950645 17.08704732 161.5140733 6 151 C2.4679991 152.54883566 -0.14109613 154.68774205 -3.0625 157.1875 C-14.02168562 166.2281014 -25.68240433 174.05483198 -40.46875 173.375 C-47.52268847 172.32997208 -52.13081601 168.6539149 -56.52734375 163.17578125 C-65.13899321 150.45246892 -62.07662785 133.07946527 -59.37988281 118.93603516 C-58.47198914 114.30904492 -58.47198914 114.30904492 -58 112 C-58.51796143 111.79431396 -59.03592285 111.58862793 -59.56958008 111.37670898 C-91.31267766 98.67031092 -91.31267766 98.67031092 -99 83 C-101.36131672 76.70315542 -100.04753199 70.51642254 -97.43359375 64.546875 C-90.03424862 51.40144442 -73.79691283 44.40146912 -60 40 C-59.34 40 -58.68 40 -58 40 C-58.2165625 39.34 -58.433125 38.68 -58.65625 38 C-60.83330028 30.25937679 -61.35834712 22.88922957 -61.4375 14.875 C-61.45941406 13.8746875 -61.48132813 12.874375 -61.50390625 11.84375 C-61.47894815 2.33471506 -59.26519989 -6.58790037 -52.57421875 -13.6328125 C-35.88217753 -28.12962249 -13.22071943 -10.97653008 0 0 Z M-48 -3 C-54.21988637 7.48427816 -51.49408385 23.07522812 -48.69873047 34.27197266 C-48.46814941 35.17222168 -48.23756836 36.0724707 -48 37 C-43.58168667 36.38629574 -39.1657164 35.75709747 -34.75 35.125 C-33.49574219 34.95097656 -32.24148437 34.77695313 -30.94921875 34.59765625 C-29.74394531 34.42363281 -28.53867188 34.24960938 -27.296875 34.0703125 C-25.63156738 33.83465576 -25.63156738 33.83465576 -23.93261719 33.59423828 C-17.87805012 32.3673971 -15.48297629 29.42623435 -11.9375 24.5625 C-7.29267978 18.28888695 -7.29267978 18.28888695 -5.19140625 16.21484375 C-3.76660461 15.04560596 -3.76660461 15.04560596 -4 13 C-3.34 12.67 -2.68 12.34 -2 12 C-11.73532529 2.68703155 -23.63964093 -7.66585511 -37.75 -8.5625 C-42.275452 -8.30664406 -45.29934041 -6.64415925 -48 -3 Z M12 12 C13.3237692 13.82959971 14.6704812 15.63613234 16.04296875 17.4296875 C17.47262714 19.30736259 18.86633425 21.21256557 20.23828125 23.1328125 C25.2843049 30.14915242 25.2843049 30.14915242 32.9375 33.5625 C34.95721925 33.72302682 36.97834708 33.86600673 39 34 C42.40448403 34.48909289 45.79448971 35.06247874 49.1875 35.625 C50.8681751 35.8900229 52.549143 36.15319919 54.23046875 36.4140625 C56.09638672 36.70410156 56.09638672 36.70410156 58 37 C58.32253082 35.59295457 58.6422952 34.18527487 58.9609375 32.77734375 C59.13931152 31.99351318 59.31768555 31.20968262 59.50146484 30.40209961 C61.80083222 19.32302244 62.77604887 6.69944154 57.0625 -3.4375 C54.90102935 -6.12296354 53.32561068 -7.79421928 49.8359375 -8.3359375 C34.6676212 -8.57670443 22.45718318 1.99649071 12 12 Z M4 20 C2.56197818 21.5910643 1.19674665 23.2486015 -0.125 24.9375 C-0.84945312 25.85402344 -1.57390625 26.77054688 -2.3203125 27.71484375 C-4.09870983 29.66161306 -4.09870983 29.66161306 -4 31 C1.94 31 7.88 31 14 31 C10.23854017 25.29758701 10.23854017 25.29758701 6 20 C5.34 20 4.68 20 4 20 Z M-18.58520508 46.42895508 C-20.05464137 49.09077733 -21.15319832 51.76910882 -22.12060547 54.64990234 C-23.10941154 57.29239186 -24.37751058 59.60666016 -25.78515625 62.05078125 C-28.5858624 66.9323551 -28.5858624 66.9323551 -31.26171875 71.8828125 C-31.62225342 72.55715332 -31.98278809 73.23149414 -32.35424805 73.92626953 C-33.4433943 77.42389082 -32.43529158 80.04410946 -30.95605469 83.29248047 C-30.53227539 84.05963379 -30.10849609 84.82678711 -29.671875 85.6171875 C-29.20136719 86.47183594 -28.73085937 87.32648438 -28.24609375 88.20703125 C-27.75238281 89.08746094 -27.25867188 89.96789062 -26.75 90.875 C-26.27175781 91.74769531 -25.79351562 92.62039062 -25.30078125 93.51953125 C-20.71264227 102.95151913 -20.71264227 102.95151913 -13 109 C-10.30359012 109.09698 -7.6338078 109.13996989 -4.9375 109.1328125 C-4.14980225 109.13376923 -3.36210449 109.13472595 -2.55053711 109.13571167 C-0.88622966 109.13639174 0.77808047 109.13454953 2.44238281 109.13037109 C4.99029496 109.12502038 7.53803083 109.13032192 10.0859375 109.13671875 C11.70312539 109.13605794 13.32031317 109.13477671 14.9375 109.1328125 C16.08134155 109.13584885 16.08134155 109.13584885 17.24829102 109.13894653 C20.43146916 109.12483094 22.95772317 109.01409228 26 108 C27.51718545 105.81549235 28.86704069 103.67444516 30.1875 101.375 C30.57462158 100.70927979 30.96174316 100.04355957 31.3605957 99.35766602 C32.17116319 97.95469109 32.97664255 96.54876579 33.77734375 95.14013672 C34.97692755 93.040386 36.20589133 90.95998611 37.4375 88.87890625 C38.18949035 87.56624238 38.93956299 86.25247762 39.6875 84.9375 C40.05061279 84.33147949 40.41372559 83.72545898 40.7878418 83.10107422 C42.41262158 80.16270336 43.07818549 78.44911198 42.49609375 75.10546875 C40.57576972 71.11941757 38.54374439 67.23127802 36.375 63.375 C35.97410156 62.64410156 35.57320313 61.91320312 35.16015625 61.16015625 C34.29888516 59.61626782 33.40921114 58.0879701 32.49560547 56.57446289 C31 54 31 54 29.50830078 50.79858398 C26.48588189 44.92610802 26.48588189 44.92610802 21.18243408 41.2800293 C15.87463739 40.04049826 10.54193775 40.13612863 5.125 40.3125 C3.89562714 40.33067276 3.89562714 40.33067276 2.64141846 40.34921265 C-9.19127217 40.28289292 -9.19127217 40.28289292 -18.58520508 46.42895508 Z M-38.8125 45.5 C-40.55466797 45.91765625 -40.55466797 45.91765625 -42.33203125 46.34375 C-43.21246094 46.5603125 -44.09289062 46.776875 -45 47 C-43.41039668 53.23440168 -41.72399099 59.16287645 -39 65 C-35.93736668 61.22374338 -33.6711968 57.04461149 -31.3125 52.8125 C-30.89677734 52.07580078 -30.48105469 51.33910156 -30.05273438 50.58007812 C-27.95250795 47.46025405 -27.95250795 47.46025405 -27 44 C-31.16470277 43.81176485 -34.77018623 44.52004515 -38.8125 45.5 Z M36 44 C36.53109375 44.92941406 37.0621875 45.85882813 37.609375 46.81640625 C41.07291667 52.87760417 44.53645833 58.93880208 48 65 C50.26546852 61.60179721 51.38901628 58.16057722 52.625 54.3125 C52.85445312 53.61060547 53.08390625 52.90871094 53.3203125 52.18554688 C53.88429209 50.45835938 54.44269339 48.72935218 55 47 C52.96040523 46.49161436 50.91820862 45.99366114 48.875 45.5 C47.73804688 45.2215625 46.60109375 44.943125 45.4296875 44.65625 C42.18533302 44.03546235 39.29185543 43.87993232 36 44 Z M65 50 C64.10811441 52.20478551 63.23126607 54.41227363 62.37890625 56.6328125 C61.32007645 59.21839688 60.19281223 61.67632555 58.96484375 64.1796875 C54.63996073 72.73161996 54.63996073 72.73161996 54.78125 81.95703125 C56.32698804 85.4538847 58.08824554 88.6921617 60 92 C61.13576621 94.97327368 62.05625351 97.95903908 63 101 C74.77904899 99.72738918 89.49244927 92.95821279 97.1875 83.625 C99.6696053 79.54595195 100.08609051 75.62387065 99 71 C94.26851614 60.71665403 82.60051489 55.96409096 72.7265625 51.9453125 C70.15423721 51.05347479 67.68018059 50.45806723 65 50 Z M-85.625 65.5078125 C-89.02828976 69.20115536 -89.53028608 72.83954923 -89.34765625 77.70703125 C-88.49162559 83.35298626 -85.33875481 85.98981687 -81.0078125 89.2578125 C-73.36223172 94.54452248 -63.52577846 101 -54 101 C-52.45469742 97.46851988 -50.94326279 93.92349894 -49.4375 90.375 C-48.99986328 89.37597656 -48.56222656 88.37695312 -48.11132812 87.34765625 C-47.70205078 86.37441406 -47.29277344 85.40117187 -46.87109375 84.3984375 C-46.29766235 83.06304932 -46.29766235 83.06304932 -45.71264648 81.70068359 C-44.35735358 76.56459244 -46.15724379 72.16916345 -48.06640625 67.3828125 C-48.46923828 66.36445312 -48.87207031 65.34609375 -49.28710938 64.296875 C-49.70798828 63.25015625 -50.12886719 62.2034375 -50.5625 61.125 C-50.98724609 60.05507812 -51.41199219 58.98515625 -51.84960938 57.8828125 C-52.89446849 55.25305474 -53.94473782 52.62559658 -55 50 C-65.67504521 50 -77.77869479 58.83090855 -85.625 65.5078125 Z M-39 90 C-39.83764268 91.95649397 -40.66999059 93.91525556 -41.5 95.875 C-41.9640625 96.96554688 -42.428125 98.05609375 -42.90625 99.1796875 C-44.12052456 101.80661929 -44.12052456 101.80661929 -44 104 C-39.15758367 105.33583899 -35.06562383 106.25328119 -30 106 C-31.55415479 100.0942118 -34.59534467 95.02261107 -38 90 C-38.33 90 -38.66 90 -39 90 Z M48 90 C46.46931512 92.45267635 44.95031377 94.91133894 43.4375 97.375 C42.99986328 98.07367188 42.56222656 98.77234375 42.11132812 99.4921875 C41.01249022 101.29185903 39.99932133 103.14322343 39 105 C39.33 105.66 39.66 106.32 40 107 C46.93 105.515 46.93 105.515 54 104 C53.38125 102.06125 52.7625 100.1225 52.125 98.125 C51.77695313 97.03445312 51.42890625 95.94390625 51.0703125 94.8203125 C50.18824769 91.91477277 50.18824769 91.91477277 48 90 Z M-47 114 C-47.48473678 115.68590842 -47.96248926 117.37382545 -48.4375 119.0625 C-48.70433594 120.00222656 -48.97117188 120.94195312 -49.24609375 121.91015625 C-52.09384191 133.58149716 -53.38041937 148.22811915 -47 159 C-44.02539351 161.89090544 -41.73096017 162.50125873 -37.625 162.625 C-23.9715337 162.24250338 -12.11636113 152.38361601 -3 143 C-4.36892648 140.06325368 -5.95265733 137.5919349 -7.93359375 135.03125 C-8.50013672 134.29519531 -9.06667969 133.55914062 -9.65039062 132.80078125 C-10.24013672 132.04152344 -10.82988281 131.28226563 -11.4375 130.5 C-12.60295465 128.98965283 -13.76832209 127.47923835 -14.93359375 125.96875 C-15.44978271 125.30294922 -15.96597168 124.63714844 -16.49780273 123.95117188 C-18 122 -18 122 -19.36547852 119.83105469 C-21.52615168 117.41058438 -23.04197302 117.23591335 -26.21875 116.734375 C-27.74048828 116.48300781 -27.74048828 116.48300781 -29.29296875 116.2265625 C-30.35128906 116.06929687 -31.40960938 115.91203125 -32.5 115.75 C-34.08748047 115.49089844 -34.08748047 115.49089844 -35.70703125 115.2265625 C-41.32711878 114.30930524 -41.32711878 114.30930524 -47 114 Z M27.50390625 120.87890625 C24.95164569 124.02301559 23.01346184 127.49523966 21 131 C19.66731007 132.59873975 18.29713113 134.16777164 16.875 135.6875 C14.51205206 137.97120329 14.51205206 137.97120329 14 141 C13.34 141 12.68 141 12 141 C11.77110672 143.09710007 11.77110672 143.09710007 13.3984375 144.48046875 C29.65245269 158.53829739 29.65245269 158.53829739 50 163 C53.45183946 162.04115571 55.17992855 161.19714611 57.21484375 158.2265625 C64.19838165 145.25358462 60.79339095 129.74985183 58 116 C57.505 115.01 57.505 115.01 57 114 C47.89434869 114 34.28987681 114.13138312 27.50390625 120.87890625 Z M-8 119 C-3.446332 125.14290348 -3.446332 125.14290348 1.375 131 C2.24125 131.99 3.1075 132.98 4 134 C8.03527446 132.4451236 10.07508555 129.82178919 12.75 126.5 C13.54921875 125.5203125 14.3484375 124.540625 15.171875 123.53125 C17.19516352 121.25017054 17.19516352 121.25017054 17 119 C8.75 119 0.5 119 -8 119 Z " fill="#00CEFF" transform="translate(130,55)"/>
<path d="M0 0 C4.9345074 4.51074246 8.53009357 9.03857949 9.3359375 15.83203125 C9.439323 23.72034487 8.68508125 29.18654502 3.09375 34.97265625 C-2.49996866 40.05500884 -7.24333964 42.87284163 -15 43 C-21.41853937 42.22977528 -27.61335559 39.96717954 -31.734375 34.84375 C-36.71715112 27.53567835 -37.77516305 21.83011817 -37 13 C-35.22730962 6.29313321 -30.53998876 1.90612488 -25 -2 C-16.9621337 -6.01893315 -7.37454985 -4.90270999 0 0 Z " fill="#00CCFF" transform="translate(149,113)"/>
</svg>
