<?xml version="1.0" encoding="UTF-8"?>
<svg version="1.1" xmlns="http://www.w3.org/2000/svg" width="292" height="286">
<path d="M0 0 C2.27601341 -0.00965742 4.55110458 -0.04066758 6.8269043 -0.07226562 C14.13988436 -0.12487265 20.41588793 -0.04201428 27.11401367 3.24023438 C28.08338867 3.50835937 29.05276367 3.77648437 30.05151367 4.05273438 C39.91244087 7.87635921 47.68420107 15.46914514 54.43823242 23.36132812 C58.72466579 28.16732918 63.94250618 31.52241038 69.35620117 34.90820312 C69.9362793 35.34777344 70.51635742 35.78734375 71.11401367 36.24023438 C71.11401367 36.90023437 71.11401367 37.56023437 71.11401367 38.24023438 C83.31098097 40.5003156 92.70690314 40.29852221 103.11401367 33.24023438 C104.00604492 32.70914063 104.89807617 32.17804688 105.81713867 31.63085938 C108.82886431 29.80743365 110.63818534 27.90639404 112.67651367 25.05273438 C113.15088867 24.45460938 113.62526367 23.85648438 114.11401367 23.24023438 C114.77401367 23.24023438 115.43401367 23.24023438 116.11401367 23.24023438 C115.11313271 36.75212733 108.23826828 48.06934598 98.53979492 57.35351562 C86.89234644 66.41264222 74.28113824 68.62883456 59.86401367 68.55273438 C58.76444336 68.54781982 57.66487305 68.54290527 56.53198242 68.5378418 C44.691507 68.36746896 34.11806503 67.0523316 24.11401367 60.24023438 C23.12014648 59.59441406 23.12014648 59.59441406 22.10620117 58.93554688 C17.09438141 55.45675433 13.23606162 51.23905481 9.28979492 46.60742188 C7.06175428 44.18337766 4.7291784 42.23355212 2.11401367 40.24023438 C-0.33183952 38.30630394 -2.68128904 36.44493166 -4.88598633 34.24023438 C-12.96606324 28.5182915 -21.3772499 28.14268872 -30.88598633 29.24023438 C-34.09230831 30.22166428 -36.03860018 31.35988503 -38.88598633 33.24023438 C-40.15442383 33.92085937 -40.15442383 33.92085937 -41.44848633 34.61523438 C-46.22909432 37.80230637 -50.53544347 40.879144 -52.88598633 46.24023438 C-53.54598633 45.91023438 -54.20598633 45.58023438 -54.88598633 45.24023438 C-54.13562891 42.12224435 -53.25235221 39.05953035 -52.32348633 35.99023438 C-52.05407227 35.09820312 -51.7846582 34.20617187 -51.50708008 33.28710938 C-51.30211914 32.61164063 -51.0971582 31.93617187 -50.88598633 31.24023438 C-50.22598633 31.24023438 -49.56598633 31.24023438 -48.88598633 31.24023438 C-48.84473633 30.43585938 -48.80348633 29.63148437 -48.76098633 28.80273438 C-47.56186537 23.92059905 -45.14562222 20.05713822 -41.88598633 16.24023438 C-40.55509495 15.568706 -39.22210899 14.90129297 -37.88598633 14.24023438 C-37.55598633 13.25023438 -37.22598633 12.26023437 -36.88598633 11.24023438 C-30.80299239 6.46073914 -24.31677165 3.25273873 -16.88598633 1.24023438 C-11.49695906 -0.55610805 -5.64517997 0.01449185 0 0 Z " fill="#05B0CC" transform="translate(143.885986328125,74.759765625)"/>
<path d="M0 0 C1.27939453 -0.00773438 2.55878906 -0.01546875 3.87695312 -0.0234375 C18.06959451 0.0060537 30.66197542 4.50133436 41.3125 14.25 C43.65477933 16.74262834 45.91845261 19.2792899 48.13671875 21.8828125 C50.36475939 24.30685672 52.69733527 26.25668226 55.3125 28.25 C57.75835319 30.18393043 60.10780272 32.04530272 62.3125 34.25 C70.39257691 39.97194288 78.80376357 40.34754565 88.3125 39.25 C91.51882198 38.26857009 93.46511385 37.13034934 96.3125 35.25 C97.199375 34.775625 98.08625 34.30125 99 33.8125 C101.80093461 31.91997661 103.98998365 29.69805777 106.3125 27.25 C106.9725 26.59 107.6325 25.93 108.3125 25.25 C109.3025 23.765 109.3025 23.765 110.3125 22.25 C110.9725 22.58 111.6325 22.91 112.3125 23.25 C109.10377462 36.23345361 105.01563649 46.68749081 94.3125 55.25 C93.755625 56.054375 93.19875 56.85875 92.625 57.6875 C86.5154635 64.45752693 76.16873592 67.4156253 67.3125 68.25 C63.22845228 68.41708297 59.14958178 68.43507011 55.0625 68.4375 C53.45955078 68.45586914 53.45955078 68.45586914 51.82421875 68.47460938 C35.70724431 68.50398418 22.31442454 64.39464421 10.3125 53.25 C7.84649861 50.70249224 5.45659639 48.08915211 3.11694336 45.42529297 C0.69252344 42.67228211 -1.65523582 40.31607179 -4.6875 38.25 C-5.39648438 37.755 -6.10546875 37.26 -6.8359375 36.75 C-7.57070312 36.255 -8.30546875 35.76 -9.0625 35.25 C-9.79210937 34.755 -10.52171875 34.26 -11.2734375 33.75 C-19.13976886 28.86218246 -25.49532718 28.22123869 -34.6875 29.25 C-38.37392005 30.46435014 -41.45037132 32.12828645 -44.6875 34.25 C-45.29335938 34.61867187 -45.89921875 34.98734375 -46.5234375 35.3671875 C-50.12458529 37.63327562 -52.78919082 39.99236715 -55.25 43.4375 C-55.724375 44.035625 -56.19875 44.63375 -56.6875 45.25 C-57.3475 45.25 -58.0075 45.25 -58.6875 45.25 C-57.23080208 33.81383425 -53.08524455 25.04632313 -45.6875 16.25 C-45.21054687 15.65445313 -44.73359375 15.05890625 -44.2421875 14.4453125 C-32.78723806 1.4937365 -16.18398889 -0.09873303 0 0 Z " fill="#05AFCC" transform="translate(91.6875,142.75)"/>
<path d="M0 0 C0.66 0.33 1.32 0.66 2 1 C0.61559342 2.63474589 -0.78303245 4.25745662 -2.1875 5.875 C-2.96480469 6.77992187 -3.74210937 7.68484375 -4.54296875 8.6171875 C-6.99573203 10.99586095 -8.77053123 12.00190486 -12 13 C-9.49879773 9.78416851 -6.92516009 6.83374884 -4 4 C-3.2575 3.2575 -2.515 2.515 -1.75 1.75 C-0.88375 0.88375 -0.88375 0.88375 0 0 Z " fill="#037486" transform="translate(111,83)"/>
<path d="" fill="#000000" transform="translate(0,0)"/>
<path d="" fill="#000000" transform="translate(0,0)"/>
<path d="" fill="#000000" transform="translate(0,0)"/>
<path d="" fill="#000000" transform="translate(0,0)"/>
<path d="" fill="#000000" transform="translate(0,0)"/>
<path d="" fill="#000000" transform="translate(0,0)"/>
<path d="" fill="#000000" transform="translate(0,0)"/>
<path d="" fill="#000000" transform="translate(0,0)"/>
<path d="" fill="#000000" transform="translate(0,0)"/>
<path d="" fill="#000000" transform="translate(0,0)"/>
<path d="" fill="#000000" transform="translate(0,0)"/>
<path d="" fill="#000000" transform="translate(0,0)"/>
<path d="" fill="#000000" transform="translate(0,0)"/>
<path d="" fill="#000000" transform="translate(0,0)"/>
<path d="" fill="#000000" transform="translate(0,0)"/>
<path d="" fill="#000000" transform="translate(0,0)"/>
<path d="" fill="#000000" transform="translate(0,0)"/>
<path d="" fill="#000000" transform="translate(0,0)"/>
<path d="" fill="#000000" transform="translate(0,0)"/>
<path d="" fill="#000000" transform="translate(0,0)"/>
<path d="" fill="#000000" transform="translate(0,0)"/>
<path d="" fill="#000000" transform="translate(0,0)"/>
<path d="" fill="#000000" transform="translate(0,0)"/>
<path d="" fill="#000000" transform="translate(0,0)"/>
<path d="" fill="#000000" transform="translate(0,0)"/>
<path d="" fill="#000000" transform="translate(0,0)"/>
<path d="" fill="#000000" transform="translate(0,0)"/>
<path d="" fill="#000000" transform="translate(0,0)"/>
<path d="" fill="#000000" transform="translate(0,0)"/>
<path d="" fill="#000000" transform="translate(0,0)"/>
<path d="" fill="#000000" transform="translate(0,0)"/>
<path d="" fill="#000000" transform="translate(0,0)"/>
<path d="" fill="#000000" transform="translate(0,0)"/>
<path d="" fill="#000000" transform="translate(0,0)"/>
<path d="" fill="#000000" transform="translate(0,0)"/>
<path d="" fill="#000000" transform="translate(0,0)"/>
<path d="" fill="#000000" transform="translate(0,0)"/>
<path d="" fill="#000000" transform="translate(0,0)"/>
<path d="" fill="#000000" transform="translate(0,0)"/>
<path d="" fill="#000000" transform="translate(0,0)"/>
<path d="" fill="#000000" transform="translate(0,0)"/>
<path d="" fill="#000000" transform="translate(0,0)"/>
<path d="" fill="#000000" transform="translate(0,0)"/>
<path d="" fill="#000000" transform="translate(0,0)"/>
<path d="" fill="#000000" transform="translate(0,0)"/>
<path d="" fill="#000000" transform="translate(0,0)"/>
<path d="" fill="#000000" transform="translate(0,0)"/>
<path d="" fill="#000000" transform="translate(0,0)"/>
<path d="" fill="#000000" transform="translate(0,0)"/>
<path d="" fill="#000000" transform="translate(0,0)"/>
<path d="" fill="#000000" transform="translate(0,0)"/>
<path d="" fill="#000000" transform="translate(0,0)"/>
<path d="" fill="#000000" transform="translate(0,0)"/>
<path d="" fill="#000000" transform="translate(0,0)"/>
<path d="" fill="#000000" transform="translate(0,0)"/>
<path d="" fill="#000000" transform="translate(0,0)"/>
<path d="" fill="#000000" transform="translate(0,0)"/>
</svg>
